<svg xmlns="http://www.w3.org/2000/svg" version="1.1" xmlns:xlink="http://www.w3.org/1999/xlink" xmlns:svgjs="http://svgjs.dev/svgjs" width="1000" height="1000" viewBox="0 0 1000 1000"><rect width="1000" height="1000" fill="#ffffff"></rect><g transform="matrix(0.7,0,0,0.7,149.57575764538092,465.665855171386)"><svg viewBox="0 0 396 39" data-background-color="#ffffff" preserveAspectRatio="xMidYMid meet" height="98" width="1000" xmlns="http://www.w3.org/2000/svg" xmlns:xlink="http://www.w3.org/1999/xlink"><defs></defs><g id="tight-bounds" transform="matrix(1,0,0,1,0.24000003938687087,0.019415312096072057)"><svg viewBox="0 0 395.52 38.961169375807856" height="38.961169375807856" width="395.52"><g><svg viewBox="0 0 471.6728263764413 46.46269437302423" height="38.961169375807856" width="395.52"><g><rect width="3.031876793096901" height="33.78799409905162" x="65.18409933963531" y="6.337350136986302" fill="#77d4fc" opacity="1" stroke-width="0" stroke="transparent" fill-opacity="1" class="rect-o-0" data-fill-palette-color="primary" rx="1%" id="o-0" data-palette-color="#77d4fc"></rect></g><g transform="matrix(1,0,0,1,76.15282637644137,6.421399873551106)"><svg viewBox="0 0 395.52 33.619894625922015" height="33.619894625922015" width="395.52"><g><svg viewBox="0 0 395.52 33.619894625922015" height="33.619894625922015" width="395.52"><g><svg viewBox="0 0 395.52 33.619894625922015" height="33.619894625922015" width="395.52"><g transform="matrix(1,0,0,1,0,0)"><svg width="395.52" viewBox="3.799999952316284 -35.650001525878906 425.8800048828125 36.30000305175781" height="33.619894625922015" data-palette-color="#77d4fc"><g class="undefined-text-0" data-fill-palette-color="primary" id="text-0"><path d="M8.6 0L3.8 0 3.8-35 18.55-35Q21.85-35 24.55-33.52 27.25-32.05 28.85-29.4 30.45-26.75 30.45-23.2L30.45-23.2Q30.45-19.75 28.88-17.1 27.3-14.45 24.6-12.95 21.9-11.45 18.45-11.45L18.45-11.45 8.6-11.45 8.6 0ZM8.6-30.75L8.6-15.7 17.9-15.7Q20.05-15.7 21.83-16.57 23.6-17.45 24.63-19.15 25.65-20.85 25.65-23.2L25.65-23.2Q25.65-25.6 24.63-27.28 23.6-28.95 21.83-29.85 20.05-30.75 17.95-30.75L17.95-30.75 8.6-30.75ZM41 0L36.2 0 36.2-35 51.55-35Q54.85-35 57.55-33.58 60.25-32.15 61.85-29.58 63.45-27 63.45-23.55L63.45-23.55Q63.45-20.05 61.67-17.38 59.9-14.7 56.9-13.4L56.9-13.4 60.65-5.8Q61.05-5 61.52-4.63 62-4.25 62.9-4.25L62.9-4.25 65.4-4.25 65.4 0 62.15 0Q60.2 0 58.72-1 57.25-2 56.3-3.7L56.3-3.7 52.1-12.25Q51.6-12.2 51.02-12.18 50.45-12.15 49.85-12.15L49.85-12.15 41-12.15 41 0ZM41-30.75L41-16.4 50.9-16.4Q53.05-16.4 54.82-17.25 56.6-18.1 57.62-19.7 58.65-21.3 58.65-23.55L58.65-23.55Q58.65-25.85 57.6-27.45 56.55-29.05 54.8-29.9 53.05-30.75 50.95-30.75L50.95-30.75 41-30.75ZM86.59 0.65L86.59 0.65Q82.45 0.65 79.09-0.78 75.75-2.2 73.37-4.7 71-7.2 69.7-10.5 68.39-13.8 68.39-17.55L68.39-17.55Q68.39-21.3 69.7-24.58 71-27.85 73.37-30.35 75.75-32.85 79.09-34.25 82.45-35.65 86.59-35.65L86.59-35.65Q90.75-35.65 94.09-34.25 97.45-32.85 99.82-30.35 102.19-27.85 103.5-24.58 104.8-21.3 104.8-17.55L104.8-17.55Q104.8-13.8 103.5-10.5 102.19-7.2 99.82-4.7 97.45-2.2 94.09-0.78 90.75 0.65 86.59 0.65ZM86.59-3.6L86.59-3.6Q89.45-3.6 91.9-4.65 94.34-5.7 96.17-7.6 98-9.5 99-12.03 100-14.55 100-17.55L100-17.55Q100-20.5 99-23.05 98-25.6 96.17-27.48 94.34-29.35 91.9-30.38 89.45-31.4 86.59-31.4L86.59-31.4Q83.7-31.4 81.25-30.38 78.8-29.35 77-27.48 75.2-25.6 74.2-23.08 73.2-20.55 73.2-17.55L73.2-17.55Q73.2-14.55 74.2-12.03 75.2-9.5 77-7.6 78.8-5.7 81.25-4.65 83.7-3.6 86.59-3.6ZM121.89 0L110.69 0 110.69-35 121.89-35Q127.49-35 131.57-32.75 135.64-30.5 137.89-26.55 140.14-22.6 140.14-17.5L140.14-17.5Q140.14-12.4 137.89-8.45 135.64-4.5 131.57-2.25 127.49 0 121.89 0L121.89 0ZM115.49-30.75L115.49-4.25 121.94-4.25Q125.84-4.25 128.87-5.85 131.89-7.45 133.64-10.43 135.39-13.4 135.39-17.5L135.39-17.5Q135.39-21.65 133.64-24.6 131.89-27.55 128.87-29.15 125.84-30.75 121.94-30.75L121.94-30.75 115.49-30.75ZM159.79 0.6L159.79 0.6Q155.74 0.6 152.59-1.1 149.44-2.8 147.67-6 145.89-9.2 145.89-13.55L145.89-13.55 145.89-35 150.69-35 150.69-13.05Q150.69-10.5 151.79-8.35 152.89-6.2 154.94-4.93 156.99-3.65 159.79-3.65L159.79-3.65Q162.59-3.65 164.62-4.93 166.64-6.2 167.74-8.35 168.84-10.5 168.84-13.05L168.84-13.05 168.84-35 173.64-35 173.64-13.55Q173.64-9.2 171.87-6 170.09-2.8 166.97-1.1 163.84 0.6 159.79 0.6ZM201.19 0L196.69 0Q192.69-0.05 189.39-1.43 186.09-2.8 183.71-5.2 181.34-7.6 180.06-10.75 178.79-13.9 178.79-17.5L178.79-17.5Q178.79-21.1 180.06-24.25 181.34-27.4 183.71-29.8 186.09-32.2 189.39-33.58 192.69-34.95 196.69-35L196.69-35 201.19-35 201.19-30.75 196.84-30.75Q193.99-30.75 191.59-29.73 189.19-28.7 187.41-26.93 185.64-25.15 184.64-22.75 183.64-20.35 183.64-17.5L183.64-17.5Q183.64-14.7 184.64-12.28 185.64-9.85 187.41-8.08 189.19-6.3 191.59-5.3 193.99-4.3 196.84-4.25L196.84-4.25 201.19-4.25 201.19 0ZM226.39 0L224.04 0Q221.19 0 219.11-1.23 217.04-2.45 215.91-4.58 214.79-6.7 214.79-9.35L214.79-9.35 214.79-30.75 204.14-30.75 204.14-35 230.24-35 230.24-30.75 219.59-30.75 219.59-8.75Q219.59-6.8 220.81-5.53 222.04-4.25 224.09-4.25L224.09-4.25 226.39-4.25 226.39 0Z" fill="#77d4fc" data-fill-palette-color="primary"></path><path d="M238.84 0L234.04 0 234.04-35 249.39-35Q252.69-35 255.39-33.58 258.09-32.15 259.69-29.58 261.29-27 261.29-23.55L261.29-23.55Q261.29-20.05 259.52-17.38 257.74-14.7 254.74-13.4L254.74-13.4 258.49-5.8Q258.89-5 259.37-4.63 259.84-4.25 260.74-4.25L260.74-4.25 263.24-4.25 263.24 0 259.99 0Q258.04 0 256.57-1 255.09-2 254.14-3.7L254.14-3.7 249.94-12.25Q249.44-12.2 248.87-12.18 248.29-12.15 247.69-12.15L247.69-12.15 238.84-12.15 238.84 0ZM238.84-30.75L238.84-16.4 248.74-16.4Q250.89-16.4 252.67-17.25 254.44-18.1 255.47-19.7 256.49-21.3 256.49-23.55L256.49-23.55Q256.49-25.85 255.44-27.45 254.39-29.05 252.64-29.9 250.89-30.75 248.79-30.75L248.79-30.75 238.84-30.75ZM290.09 0L276.39 0Q273.49 0 271.26-1.38 269.04-2.75 267.79-5 266.54-7.25 266.54-9.9L266.54-9.9Q266.54-12.3 267.66-14.4 268.79-16.5 270.94-17.7L270.94-17.7Q268.84-19.05 267.74-21.05 266.64-23.05 266.64-25.25L266.64-25.25Q266.64-27.95 267.91-30.15 269.19-32.35 271.39-33.68 273.59-35 276.24-35L276.24-35 290.09-35 290.09-30.75 276.79-30.75Q275.24-30.75 274.04-30 272.84-29.25 272.14-28.03 271.44-26.8 271.44-25.25L271.44-25.25Q271.44-23.8 272.16-22.6 272.89-21.4 274.14-20.68 275.39-19.95 276.89-19.95L276.89-19.95 288.24-19.95 288.24-15.7 277.24-15.7Q275.39-15.7 274.06-14.88 272.74-14.05 272.01-12.73 271.29-11.4 271.29-9.9L271.29-9.9Q271.29-8.4 271.99-7.1 272.69-5.8 273.99-5.03 275.29-4.25 277.04-4.25L277.04-4.25 290.09-4.25 290.09 0ZM309.14 0.6L309.14 0.6Q307.33 0.6 305.99-0.33 304.64-1.25 303.83-3.35L303.83-3.35 292.39-35 297.63-35 307.79-5.3Q308.04-4.65 308.33-4.25 308.64-3.85 309.14-3.85L309.14-3.85Q309.69-3.85 309.99-4.25 310.29-4.65 310.54-5.3L310.54-5.3 320.89-35 325.93-35 314.49-3.35Q313.74-1.3 312.36-0.35 310.99 0.6 309.14 0.6ZM346.88 0L328.63 0 328.63-4.25 335.38-4.25 335.38-30.75 328.63-30.75 328.63-35 346.88-35 346.88-30.75 340.18-30.75 340.18-4.25 346.88-4.25 346.88 0ZM375.43 0L361.73 0Q358.83 0 356.61-1.38 354.38-2.75 353.13-5 351.88-7.25 351.88-9.9L351.88-9.9Q351.88-12.3 353.01-14.4 354.13-16.5 356.28-17.7L356.28-17.7Q354.18-19.05 353.08-21.05 351.98-23.05 351.98-25.25L351.98-25.25Q351.98-27.95 353.26-30.15 354.53-32.35 356.73-33.68 358.93-35 361.58-35L361.58-35 375.43-35 375.43-30.75 362.13-30.75Q360.58-30.75 359.38-30 358.18-29.25 357.48-28.03 356.78-26.8 356.78-25.25L356.78-25.25Q356.78-23.8 357.51-22.6 358.23-21.4 359.48-20.68 360.73-19.95 362.23-19.95L362.23-19.95 373.58-19.95 373.58-15.7 362.58-15.7Q360.73-15.7 359.41-14.88 358.08-14.05 357.36-12.73 356.63-11.4 356.63-9.9L356.63-9.9Q356.63-8.4 357.33-7.1 358.03-5.8 359.33-5.03 360.63-4.25 362.38-4.25L362.38-4.25 375.43-4.25 375.43 0ZM394.48 0.6L394.48 0.6Q390.58 0.6 387.55-1.03 384.53-2.65 382.83-5.68 381.13-8.7 381.13-12.85L381.13-12.85 381.13-35 385.93-35 385.93-12.55Q385.93-10.1 386.95-8.08 387.98-6.05 389.9-4.83 391.83-3.6 394.48-3.6L394.48-3.6Q397.08-3.6 399-4.83 400.93-6.05 401.98-8.08 403.03-10.1 403.03-12.55L403.03-12.55 403.03-35 407.83-35 407.83-12.55Q407.83-10.1 408.85-8.08 409.88-6.05 411.8-4.83 413.73-3.6 416.38-3.6L416.38-3.6Q418.98-3.6 420.9-4.83 422.83-6.05 423.85-8.08 424.88-10.1 424.88-12.55L424.88-12.55 424.88-35 429.68-35 429.68-12.85Q429.68-8.7 427.98-5.68 426.28-2.65 423.28-1.03 420.28 0.6 416.38 0.6L416.38 0.6Q414.03 0.6 411.9-0.08 409.78-0.75 408.13-2.18 406.48-3.6 405.43-5.7L405.43-5.7Q404.43-3.6 402.73-2.2 401.03-0.8 398.9-0.1 396.78 0.6 394.48 0.6Z" fill="#4b91f1" data-fill-palette-color="secondary"></path></g></svg></g></svg></g></svg></g></svg></g><g><svg viewBox="0 0 57.24724909592614 46.46269437302423" height="46.46269437302423" width="57.24724909592614"><g><svg xmlns="http://www.w3.org/2000/svg" xmlns:xlink="http://www.w3.org/1999/xlink" version="1.1" x="0" y="0" viewBox="15.130000114440918 21.699005126953125 69.73999786376953 56.60198974609375" enable-background="new 0 0 100 100" xml:space="preserve" height="46.46269437302423" width="57.24724909592614" class="icon-icon-0" data-fill-palette-color="accent" id="icon-0"><path fill="#4b91f1" d="M60.743 63.773h-3.075l2.585 11.527-20.506-0.002 2.585-11.525h-3.074L36.72 75.09c-0.05 0.221-0.259 1.364 0.482 2.289 0.336 0.421 0.971 0.922 2.088 0.922h21.422c0.226 0 1.39-0.047 2.128-0.973 0.336-0.42 0.686-1.15 0.441-2.238L60.743 63.773z" data-fill-palette-color="accent"></path><g fill="#4b91f1" data-fill-palette-color="accent"><path fill="#4b91f1" d="M79.118 65.273H20.882c-4.221 0-5.752-3.439-5.752-5.752v-32.07c0-4.22 3.439-5.752 5.752-5.752h58.236c4.221 0 5.752 3.44 5.752 5.752v32.07C84.87 63.742 81.432 65.273 79.118 65.273zM20.882 24.699c-0.637 0.011-2.752 0.242-2.752 2.752v32.07c0.01 0.637 0.241 2.752 2.752 2.752h58.228c0.652-0.013 2.761-0.246 2.761-2.752v-32.07c-0.011-0.636-0.24-2.752-2.752-2.752H20.882z" data-fill-palette-color="accent"></path></g><g fill="#4b91f1" data-fill-palette-color="accent"><path fill="#4b91f1" d="M49.696 44.378c-0.484 0-0.938-0.283-1.141-0.74l-4.268-9.549c-0.135-0.303-0.145-0.648-0.025-0.958 0.12-0.31 0.356-0.56 0.66-0.695 1.576-0.699 3.049-1.011 4.773-1.011 0.689 0 1.25 0.56 1.25 1.25v10.453c0 0.59-0.412 1.1-0.989 1.223C49.87 44.369 49.782 44.378 49.696 44.378zM47.114 34.284l1.332 2.982v-3.264C47.992 34.061 47.552 34.153 47.114 34.284z" data-fill-palette-color="accent"></path></g><g fill="#4b91f1" data-fill-palette-color="accent"><path fill="#4b91f1" d="M39.3 45.468c-0.285 0-0.562-0.098-0.786-0.279-0.258-0.208-0.422-0.511-0.456-0.841-0.54-5.137 2.16-9.813 6.879-11.914 0.629-0.282 1.369 0.002 1.65 0.633l4.252 9.549c0.162 0.365 0.142 0.787-0.062 1.133-0.198 0.347-0.552 0.577-0.95 0.618L39.431 45.46C39.388 45.465 39.344 45.468 39.3 45.468zM44.845 35.3c-2.666 1.627-4.275 4.414-4.352 7.536l7.361-0.774L44.845 35.3z" data-fill-palette-color="accent"></path></g><g fill="#4b91f1" data-fill-palette-color="accent"><path fill="#4b91f1" d="M49.681 54.807c-5.482 0-10.291-3.897-11.432-9.271-0.088-0.414-0.146-0.787-0.191-1.209-0.035-0.33 0.062-0.66 0.271-0.918 0.209-0.258 0.511-0.422 0.84-0.457l10.393-1.092c0.639-0.066 1.221 0.357 1.354 0.983l2.172 10.224c0.145 0.677-0.287 1.34-0.963 1.482C51.318 54.721 50.497 54.807 49.681 54.807zM40.759 45.298c1.002 4.078 4.709 7.009 8.922 7.009 0.228 0 0.455-0.008 0.684-0.024l-1.661-7.818L40.759 45.298z" data-fill-palette-color="accent"></path></g><g fill="#4b91f1" data-fill-palette-color="accent"><path fill="#4b91f1" d="M51.843 54.578c-0.577 0-1.096-0.403-1.221-0.99l-2.174-10.213c-0.018-0.085-0.027-0.173-0.027-0.26v-10.44c0-0.69 0.559-1.25 1.25-1.25 6.453 0 11.703 5.244 11.703 11.69 0 5.574-3.812 10.275-9.271 11.435C52.018 54.568 51.93 54.578 51.843 54.578zM50.921 42.983l1.869 8.781c3.638-1.291 6.084-4.689 6.084-8.648 0-4.645-3.47-8.495-7.953-9.106V42.983z" data-fill-palette-color="accent"></path></g><g fill="#4b91f1" data-fill-palette-color="accent"><path fill="#4b91f1" d="M63.609 44.366h-8.395c-0.691 0-1.25-0.56-1.25-1.25 0-0.69 0.559-1.25 1.25-1.25h8.395c0.689 0 1.25 0.56 1.25 1.25C64.859 43.806 64.3 44.366 63.609 44.366z" data-fill-palette-color="accent"></path></g><g fill="#4b91f1" data-fill-palette-color="accent"><g fill="#4b91f1" data-fill-palette-color="accent"><path fill="#4b91f1" d="M66.382 46.772c-2.016 0-3.655-1.64-3.655-3.656 0-2.017 1.641-3.657 3.655-3.657s3.656 1.641 3.656 3.657C70.038 45.132 68.396 46.772 66.382 46.772zM66.382 41.959c-0.639 0-1.155 0.52-1.155 1.157 0 0.637 0.518 1.156 1.155 1.156s1.156-0.519 1.156-1.156C67.538 42.479 67.02 41.959 66.382 41.959z" data-fill-palette-color="accent"></path></g></g><g fill="#4b91f1" data-fill-palette-color="accent"><path fill="#4b91f1" d="M43.894 40.965c-0.32 0-0.641-0.122-0.884-0.366l-5.935-5.936c-0.488-0.488-0.488-1.28 0-1.768 0.486-0.488 1.279-0.488 1.768 0l5.935 5.936c0.488 0.488 0.488 1.28 0 1.768C44.534 40.843 44.214 40.965 43.894 40.965z" data-fill-palette-color="accent"></path></g><g fill="#4b91f1" data-fill-palette-color="accent"><g fill="#4b91f1" data-fill-palette-color="accent"><path fill="#4b91f1" d="M35.998 35.477c-0.978 0-1.896-0.381-2.585-1.071-1.426-1.426-1.426-3.745-0.001-5.171 0.69-0.691 1.608-1.071 2.586-1.071 0.977 0 1.896 0.38 2.585 1.071 1.426 1.426 1.426 3.745 0 5.171C37.894 35.096 36.975 35.477 35.998 35.477zM35.998 30.663c-0.31 0-0.6 0.12-0.817 0.339-0.451 0.451-0.451 1.185 0 1.636 0.436 0.438 1.198 0.438 1.635 0 0.451-0.451 0.451-1.185 0-1.636C36.597 30.783 36.308 30.663 35.998 30.663z" data-fill-palette-color="accent"></path></g></g><g fill="#4b91f1" data-fill-palette-color="accent"><path fill="#4b91f1" d="M40.042 54.471c-0.319 0-0.639-0.121-0.883-0.365-0.488-0.487-0.488-1.279 0-1.769l5.936-5.936c0.487-0.488 1.279-0.488 1.768 0 0.488 0.488 0.488 1.279 0 1.768l-5.936 5.937C40.683 54.35 40.362 54.471 40.042 54.471z" data-fill-palette-color="accent"></path></g><g fill="#4b91f1" data-fill-palette-color="accent"><g fill="#4b91f1" data-fill-palette-color="accent"><path fill="#4b91f1" d="M38.083 58.838c-0.977 0-1.896-0.381-2.586-1.072-0.691-0.688-1.071-1.607-1.071-2.584 0-0.978 0.38-1.896 1.071-2.586 0.691-0.691 1.609-1.072 2.586-1.072s1.895 0.381 2.584 1.07c0.691 0.691 1.072 1.61 1.072 2.588 0 0.977-0.381 1.896-1.072 2.584C39.978 58.457 39.06 58.838 38.083 58.838zM38.083 54.023c-0.31 0-0.6 0.121-0.818 0.34-0.219 0.218-0.339 0.508-0.339 0.816 0 0.31 0.12 0.6 0.339 0.817 0.438 0.438 1.199 0.438 1.635 0 0.219-0.22 0.34-0.509 0.34-0.817 0-0.31-0.121-0.6-0.34-0.818C38.683 54.145 38.392 54.023 38.083 54.023z" data-fill-palette-color="accent"></path></g></g></svg></g></svg></g></svg></g></svg><rect width="395.52" height="38.961169375807856" fill="none" stroke="none" visibility="hidden"></rect></g></svg></g></svg>