<svg xmlns="http://www.w3.org/2000/svg" version="1.1" xmlns:xlink="http://www.w3.org/1999/xlink" xmlns:svgjs="http://svgjs.dev/svgjs" width="1000" height="1000" viewBox="0 0 1000 1000"><rect width="1000" height="1000" fill="#ffffff"></rect><g transform="matrix(0.7,0,0,0.7,150.0000000000001,106.25)"><svg viewBox="0 0 320 360" data-background-color="#003366" preserveAspectRatio="xMidYMid meet" height="1125" width="1000" xmlns="http://www.w3.org/2000/svg" xmlns:xlink="http://www.w3.org/1999/xlink"><defs></defs><g id="tight-bounds" transform="matrix(1,0,0,1,0,0)"><svg viewBox="0 0 320 360" height="360" width="320"><g><svg></svg></g><g><svg viewBox="0 0 320 360" height="360" width="320"><g><path d="M20.961 227.22l3.726 4.658-1.863-6.056c-0.466-2.795-3.726 0.466-1.863 1.398M25.153 224.425c1.397 2.329 2.795 4.658 2.795 6.987 0 3.261 2.795 4.658 5.123 5.589-3.261-3.726-5.124-13.974-7.918-12.576M204.017 26.929c7.918 0 15.371-0.932 23.756 0.931 20.495 5.124 37.729 15.371 49.374 29.811l32.606 52.169c1.397 13.042 4.192 27.482 3.726 43.319 3.261 0 2.795-4.658 6.521-5.59-3.726 9.316-5.59 20.961-6.521 34.469-2.329-7.453 0-18.632 0.466-24.687-3.261 5.124-5.124 1.397-5.124-0.932 0.466-3.726-1.397-3.261-2.795-4.658-5.124-4.658-8.384-9.782-12.11-17.7 2.329-6.055 2.795-14.905-4.658-19.563-2.329-1.397-5.124-3.726-6.521-7.453-1.863-5.124-5.124-11.179-4.193-19.097 0.466-2.329-6.987 5.124-11.179 1.863-18.166-12.576-36.332-27.016-58.224-39.127-11.645 0-20.029-4.192-24.221-9.316-3.726-4.658-0.932-10.713 4.658-11.179 3.261 0 6.987-0.932 9.782 0.932 0.466-1.863 2.329-4.192 4.657-4.192M157.904 16.215l0.932 0.466c4.658 0.932 6.987 7.453 12.11 5.124 0 3.261 0.466 6.521-0.466 8.85-1.397 3.726-5.59 3.726-8.85 3.726-31.208-1.863-49.374 11.179-68.471 22.358-5.124 3.261-10.713 5.59-14.906 9.782-20.029 18.632-41.921 35.866-47.045 70.335l-4.192 38.195c-0.466 4.192-5.124 8.384-4.192 13.508l3.26 22.824c-3.261-3.261-5.124 0.932-4.192 2.795 0.466 1.397 2.329 6.055 5.124 1.863 3.726 6.987 7.453 20.495 12.576 26.55 15.837 18.632 36.332 35.4 53.101 52.169 4.192-0.932 7.453-0.932 8.384-3.727 1.397 2.795-1.397 5.59-3.726 6.056 7.453 4.658 15.837 8.85 27.016 9.781 14.44 0.932 27.948 3.261 40.524 6.522 6.521-1.863 13.042-2.795 20.029-3.261 2.329 0 3.726-3.726 6.521-4.658l0.466-4.658c2.795 4.192 2.329-1.397 0.466-4.192 3.261 2.795 4.192 5.124 5.589 6.987 0-1.397 3.726-6.521 3.727-0.466l0.931-6.055c1.397-0.932 1.863 5.124 3.261 0.931 1.397-4.192 4.192-0.932 6.987-2.329-0.932 1.863-0.466 5.59 2.794 3.261l3.727-3.261c2.329 5.59 6.055 3.261 7.918 2.329 20.495-13.042 40.99-28.413 60.553-43.784l-0.466 6.055 2.329-7.453c2.329 2.329 4.192 0.466 5.124-0.931 2.795-4.658 6.521-9.316 12.577-13.508-7.453 20.029-16.303 35.866-27.482 48.908l-4.658 5.59c0 3.261-0.932 7.453-4.658 7.918-1.863 0.466-5.59-0.932-8.384 1.863-1.397 1.863 3.261 5.59-0.466 2.795-3.261-2.329-6.521 0-10.248 0.932-2.795 0.932 1.863 3.726 2.795 5.589 0.932 1.863 1.863 3.726 1.398 6.056l-5.124-5.59c-6.055 3.261-9.782 9.316-14.906 13.974-2.329 1.863-1.397 5.124-1.397 7.918-3.261 0-6.987-0.932-8.85 0.932-1.397 1.863-0.932 4.658-0.932 7.453-4.658-0.466-5.124-7.453-9.315-6.056-4.192 0.932-8.85 1.397-12.577 3.727 2.795 5.59-4.658 2.329-3.726 3.26-6.987-4.192-13.042-7.453-20.495-4.658-15.837-5.124-35.4-2.795-49.84-0.931 0-2.329 0.466-4.658-0.466-5.124-0.932 2.329-3.726 1.397-3.26 1.397-8.85-6.055-17.7-9.782-27.016-14.905-8.384 0.932-16.303-3.261-18.632-5.59-6.521-6.055-13.974-2.795-20.029-4.192-13.042-3.261-17.7-16.769-19.098-26.084-0.932-4.658-4.658-6.521-6.055-6.056-6.055-19.563-15.371-37.263-22.824-55.429-1.863-4.658-1.397-9.316-1.397-14.44 2.329 0.932 4.658 0.466 4.192-2.794-2.329-15.371-7.918-27.016-13.974-38.195 3.261-15.837 3.726-34.469 11.179-48.443 6.521-12.576 18.632-19.098 27.016-29.811 2.795-3.726 2.795-8.85 5.59-12.11 9.316-9.316 18.632-19.098 28.879-27.482 4.658-3.726 10.247 0 17.234-1.397 2.329-8.384 11.645-15.837 20.495-13.508 3.726 0.932 11.179-8.85 13.508-9.782 3.726-1.397 1.863 3.726 1.863 6.987 8.85-6.987 20.961-10.713 32.14-14.906" fill="#ffffff" data-fill-palette-color="tertiary"></path></g><g transform="matrix(1,0,0,1,64,153.13949477982194)"><svg viewBox="0 0 192 53.721010440356096" height="53.721010440356096" width="192"><g><svg viewBox="0 0 192 53.721010440356096" height="53.721010440356096" width="192"><g><svg viewBox="0 0 192 53.721010440356096" height="53.721010440356096" width="192"><g transform="matrix(1,0,0,1,0,32.46997186468844)"><svg viewBox="0 0 192 21.25103857566766" height="21.25103857566766" width="192"><g><svg viewBox="0 0 192 21.25103857566766" height="21.25103857566766" width="192"><g><svg viewBox="0 0 192 21.25103857566766" height="21.25103857566766" width="192"><g transform="matrix(1,0,0,1,0,0)"><svg width="192" viewBox="3 -36.79999923706055 336.9700012207031 37.29999923706055" height="21.25103857566766" data-palette-color="#ffffff"><path d="M11 0L4 0 4-27.35 3-32.4 4-35.4 16-35.4Q19.65-35.4 22.58-34.27 25.5-33.15 27.23-30.48 28.95-27.8 28.95-23.1L28.95-23.1Q28.95-18.4 27.1-15.68 25.25-12.95 21.98-11.8 18.7-10.65 14.5-10.65L14.5-10.65 11-10.65 11-8.05 11.5-3.05 11 0ZM10.5-28.9L11-17 15.9-17Q19.2-17 20.4-18.73 21.6-20.45 21.6-23.1L21.6-23.1Q21.6-25.9 20.33-27.4 19.05-28.9 15.7-28.9L15.7-28.9 10.5-28.9ZM39.9 0L33 0 33-15.65 31.95-20.65 33-23.65 37.8-23.65 38.8-22.5Q38.8-22.5 39.47-22.93 40.15-23.35 41.4-23.75 42.65-24.15 44.45-24.15L44.45-24.15Q45.45-24.15 46.45-24 47.45-23.85 48-23.6L48-23.6 51.25-20.35 48.5-15.45 41.65-18.9 39.9-18.2 39.9 0ZM64.34 0.5L64.34 0.5Q58.25 0.5 55.4-2.7 52.55-5.9 52.55-11.8L52.55-11.8Q52.55-17.75 55.4-20.93 58.25-24.1 64.34-24.1L64.34-24.1Q70.65-24.1 73.37-20.93 76.09-17.75 76.09-11.8L76.09-11.8Q76.09-5.9 73.37-2.7 70.65 0.5 64.34 0.5ZM64.34-4.5L64.34-4.5Q66.4-4.5 67.72-6.1 69.05-7.7 69.05-11.8L69.05-11.8Q69.05-15.9 67.72-17.5 66.4-19.1 64.34-19.1L64.34-19.1Q62.25-19.1 60.92-17.5 59.59-15.9 59.59-11.8L59.59-11.8Q59.59-7.7 60.95-6.1 62.3-4.5 64.34-4.5ZM88.59 0.5L88.59 0.5Q86.24 0.5 84.07-0.7 81.89-1.9 80.49-4.5 79.09-7.1 79.09-11.3L79.09-11.3Q79.09-15.95 80.59-18.75 82.09-21.55 84.42-22.83 86.74-24.1 89.09-24.1L89.09-24.1Q91.59-24.1 92.99-23.68 94.39-23.25 95.09-22.9L95.09-22.9 94.59-32.35 95.09-35.35 102.14-35.35 102.14-8 103.14-3 102.14 0.05 95.59 0.05 95.59-2.4 95.09-2.65Q95.09-2.65 94.34-1.88 93.59-1.1 92.14-0.3 90.69 0.5 88.59 0.5ZM91.34-5.05L91.34-5.05 95.09-5.75 95.09-16.05Q95.09-17.2 94.14-17.88 93.19-18.55 91.34-18.55L91.34-18.55Q89.44-18.55 88.42-17.63 87.39-16.7 86.99-15.18 86.59-13.65 86.59-11.8L86.59-11.8Q86.59-9.05 87.69-7.05 88.79-5.05 91.34-5.05ZM115.14 0.5L115.14 0.5Q112.14 0.5 110.52-0.65 108.89-1.8 108.27-3.98 107.64-6.15 107.64-9.2L107.64-9.2 107.64-23.65 114.64-23.65 114.64-9Q114.64-6.95 115.42-6 116.19-5.05 118.04-5.05L118.04-5.05Q120.39-5.05 121.77-6.85 123.14-8.65 123.14-11.05L123.14-11.05 123.14-23.65 130.14-23.65 130.14-8.05 131.19-3.05 130.14 0 123.69 0 123.69-2.45 123.19-2.7Q122.54-2.05 121.31-1.3 120.09-0.55 118.52-0.03 116.94 0.5 115.14 0.5ZM145.44 0.5L145.44 0.5Q142.39 0.5 139.94-0.68 137.49-1.85 136.09-4.55 134.69-7.25 134.69-11.8L134.69-11.8Q134.69-16.45 136.26-19.13 137.84-21.8 140.51-22.95 143.19-24.1 146.44-24.1L146.44-24.1Q148.74-24.1 149.86-23.93 150.99-23.75 151.79-23.55L151.79-23.55 155.69-19.15 152.69-15.2 147.44-18.6Q144.94-18.6 143.54-16.85 142.14-15.1 142.14-11.8L142.14-11.8Q142.14-8.3 143.64-6.65 145.14-5 147.94-5L147.94-5Q149.79-5 151.26-5.43 152.74-5.85 153.74-6.38 154.74-6.9 155.14-7.15L155.14-7.15 155.14-1.45Q153.89-0.8 151.51-0.15 149.14 0.5 145.44 0.5ZM167.84 0.5L167.84 0.5Q164.44 0.5 162.88-1 161.34-2.5 161.34-5.55L161.34-5.55 161.34-18.95 158.19-18.95 158.19-22.2 160.84-24.65 164.38-30.85 168.28-30.85 168.28-23.6 174.78-23.6 174.78-18.6 168.28-18.6 168.28-4.9 174.78-4.95 174.78-1Q174.78-1 173.99-0.63 173.19-0.25 171.66 0.13 170.13 0.5 167.84 0.5ZM197.73 0L190.83 0 190.83-15.65 189.78-20.65 190.83-23.65 195.63-23.65 196.63-22.5Q196.63-22.5 197.31-22.93 197.98-23.35 199.23-23.75 200.48-24.15 202.28-24.15L202.28-24.15Q203.28-24.15 204.28-24 205.28-23.85 205.83-23.6L205.83-23.6 209.08-20.35 206.33-15.45 199.48-18.9 197.73-18.2 197.73 0ZM221.63 0.5L221.63 0.5Q218.38 0.5 215.83-0.65 213.28-1.8 211.83-4.5 210.38-7.2 210.38-11.8L210.38-11.8Q210.38-16.25 211.93-18.95 213.48-21.65 216.03-22.88 218.58-24.1 221.63-24.1L221.63-24.1Q224.98-24.1 226.9-23.35 228.83-22.6 229.83-21.9L229.83-21.9 232.33-13.95 231.33-10.85 217.33-10.85Q217.63-8.2 219.23-6.6 220.83-5 224.13-5L224.13-5Q226.83-5 228.5-5.65 230.18-6.3 230.83-6.65L230.83-6.65 230.83-1.45Q229.33-0.65 227-0.08 224.68 0.5 221.63 0.5ZM217.28-14.05L217.28-14.05 224.78-15.05 224.03-18.75Q223.68-18.95 223.05-19.05 222.43-19.15 221.93-19.15L221.93-19.15Q219.68-19.15 218.48-17.57 217.28-16 217.28-14.05ZM250.23 0L241.73 0 235.43-17.1 234.43-23.6 241.93-23.6 245.68-7 246.68-7 250.48-23.6 257.93-23.6 256.93-17.1 250.23 0ZM270.72-31.45L265.42-26.1 260.07-31.45 265.42-36.8 270.72-31.45ZM268.87 0L261.92 0 261.92-16.55 260.87-20.55 261.87-23.6 268.87-23.6 268.87 0ZM284.17 0.5L284.17 0.5Q280.92 0.5 278.37-0.65 275.82-1.8 274.37-4.5 272.92-7.2 272.92-11.8L272.92-11.8Q272.92-16.25 274.47-18.95 276.02-21.65 278.57-22.88 281.12-24.1 284.17-24.1L284.17-24.1Q287.52-24.1 289.45-23.35 291.37-22.6 292.37-21.9L292.37-21.9 294.87-13.95 293.87-10.85 279.87-10.85Q280.17-8.2 281.77-6.6 283.37-5 286.67-5L286.67-5Q289.37-5 291.05-5.65 292.72-6.3 293.37-6.65L293.37-6.65 293.37-1.45Q291.87-0.65 289.55-0.08 287.22 0.5 284.17 0.5ZM279.82-14.05L279.82-14.05 287.32-15.05 286.57-18.75Q286.22-18.95 285.6-19.05 284.97-19.15 284.47-19.15L284.47-19.15Q282.22-19.15 281.02-17.57 279.82-16 279.82-14.05ZM313.82 0L304.82 0 297.97-17.1 296.97-23.6 304.47-23.6 308.72-7 309.72-7 314.02-23.6 322.97-23.6 327.22-7 328.22-7 332.52-23.6 339.97-23.6 338.97-17.1 332.07 0 323.07 0 318.97-17.1 317.97-17.1 313.82 0Z" opacity="1" transform="matrix(1,0,0,1,0,0)" fill="#000000" class="undefined-text-0" data-fill-palette-color="primary" id="text-0"></path></svg></g></svg></g></svg></g></svg></g><g transform="matrix(1,0,0,1,77.9070893525292,0)"><svg viewBox="0 0 36.18582129494162 29.368935311572713" height="29.368935311572713" width="36.18582129494162"><g><svg xmlns="http://www.w3.org/2000/svg" xmlns:xlink="http://www.w3.org/1999/xlink" version="1.1" x="0" y="0" viewBox="15.130000114440918 21.699005126953125 69.73999786376953 56.60198974609375" enable-background="new 0 0 100 100" xml:space="preserve" height="29.368935311572713" width="36.18582129494162" class="icon-icon-0" data-fill-palette-color="accent" id="icon-0"><path fill="#000000" d="M60.743 63.773h-3.075l2.585 11.527-20.506-0.002 2.585-11.525h-3.074L36.72 75.09c-0.05 0.221-0.259 1.364 0.482 2.289 0.336 0.421 0.971 0.922 2.088 0.922h21.422c0.226 0 1.39-0.047 2.128-0.973 0.336-0.42 0.686-1.15 0.441-2.238L60.743 63.773z" data-fill-palette-color="accent"></path><g fill="#ff9966" data-fill-palette-color="accent"><path fill="#000000" d="M79.118 65.273H20.882c-4.221 0-5.752-3.439-5.752-5.752v-32.07c0-4.22 3.439-5.752 5.752-5.752h58.236c4.221 0 5.752 3.44 5.752 5.752v32.07C84.87 63.742 81.432 65.273 79.118 65.273zM20.882 24.699c-0.637 0.011-2.752 0.242-2.752 2.752v32.07c0.01 0.637 0.241 2.752 2.752 2.752h58.228c0.652-0.013 2.761-0.246 2.761-2.752v-32.07c-0.011-0.636-0.24-2.752-2.752-2.752H20.882z" data-fill-palette-color="accent"></path></g><g fill="#ff9966" data-fill-palette-color="accent"><path fill="#000000" d="M49.696 44.378c-0.484 0-0.938-0.283-1.141-0.74l-4.268-9.549c-0.135-0.303-0.145-0.648-0.025-0.958 0.12-0.31 0.356-0.56 0.66-0.695 1.576-0.699 3.049-1.011 4.773-1.011 0.689 0 1.25 0.56 1.25 1.25v10.453c0 0.59-0.412 1.1-0.989 1.223C49.87 44.369 49.782 44.378 49.696 44.378zM47.114 34.284l1.332 2.982v-3.264C47.992 34.061 47.552 34.153 47.114 34.284z" data-fill-palette-color="accent"></path></g><g fill="#ff9966" data-fill-palette-color="accent"><path fill="#000000" d="M39.3 45.468c-0.285 0-0.562-0.098-0.786-0.279-0.258-0.208-0.422-0.511-0.456-0.841-0.54-5.137 2.16-9.813 6.879-11.914 0.629-0.282 1.369 0.002 1.65 0.633l4.252 9.549c0.162 0.365 0.142 0.787-0.062 1.133-0.198 0.347-0.552 0.577-0.95 0.618L39.431 45.46C39.388 45.465 39.344 45.468 39.3 45.468zM44.845 35.3c-2.666 1.627-4.275 4.414-4.352 7.536l7.361-0.774L44.845 35.3z" data-fill-palette-color="accent"></path></g><g fill="#ff9966" data-fill-palette-color="accent"><path fill="#000000" d="M49.681 54.807c-5.482 0-10.291-3.897-11.432-9.271-0.088-0.414-0.146-0.787-0.191-1.209-0.035-0.33 0.062-0.66 0.271-0.918 0.209-0.258 0.511-0.422 0.84-0.457l10.393-1.092c0.639-0.066 1.221 0.357 1.354 0.983l2.172 10.224c0.145 0.677-0.287 1.34-0.963 1.482C51.318 54.721 50.497 54.807 49.681 54.807zM40.759 45.298c1.002 4.078 4.709 7.009 8.922 7.009 0.228 0 0.455-0.008 0.684-0.024l-1.661-7.818L40.759 45.298z" data-fill-palette-color="accent"></path></g><g fill="#ff9966" data-fill-palette-color="accent"><path fill="#000000" d="M51.843 54.578c-0.577 0-1.096-0.403-1.221-0.99l-2.174-10.213c-0.018-0.085-0.027-0.173-0.027-0.26v-10.44c0-0.69 0.559-1.25 1.25-1.25 6.453 0 11.703 5.244 11.703 11.69 0 5.574-3.812 10.275-9.271 11.435C52.018 54.568 51.93 54.578 51.843 54.578zM50.921 42.983l1.869 8.781c3.638-1.291 6.084-4.689 6.084-8.648 0-4.645-3.47-8.495-7.953-9.106V42.983z" data-fill-palette-color="accent"></path></g><g fill="#ff9966" data-fill-palette-color="accent"><path fill="#000000" d="M63.609 44.366h-8.395c-0.691 0-1.25-0.56-1.25-1.25 0-0.69 0.559-1.25 1.25-1.25h8.395c0.689 0 1.25 0.56 1.25 1.25C64.859 43.806 64.3 44.366 63.609 44.366z" data-fill-palette-color="accent"></path></g><g fill="#ff9966" data-fill-palette-color="accent"><g fill="#ff9966" data-fill-palette-color="accent"><path fill="#000000" d="M66.382 46.772c-2.016 0-3.655-1.64-3.655-3.656 0-2.017 1.641-3.657 3.655-3.657s3.656 1.641 3.656 3.657C70.038 45.132 68.396 46.772 66.382 46.772zM66.382 41.959c-0.639 0-1.155 0.52-1.155 1.157 0 0.637 0.518 1.156 1.155 1.156s1.156-0.519 1.156-1.156C67.538 42.479 67.02 41.959 66.382 41.959z" data-fill-palette-color="accent"></path></g></g><g fill="#ff9966" data-fill-palette-color="accent"><path fill="#000000" d="M43.894 40.965c-0.32 0-0.641-0.122-0.884-0.366l-5.935-5.936c-0.488-0.488-0.488-1.28 0-1.768 0.486-0.488 1.279-0.488 1.768 0l5.935 5.936c0.488 0.488 0.488 1.28 0 1.768C44.534 40.843 44.214 40.965 43.894 40.965z" data-fill-palette-color="accent"></path></g><g fill="#ff9966" data-fill-palette-color="accent"><g fill="#ff9966" data-fill-palette-color="accent"><path fill="#000000" d="M35.998 35.477c-0.978 0-1.896-0.381-2.585-1.071-1.426-1.426-1.426-3.745-0.001-5.171 0.69-0.691 1.608-1.071 2.586-1.071 0.977 0 1.896 0.38 2.585 1.071 1.426 1.426 1.426 3.745 0 5.171C37.894 35.096 36.975 35.477 35.998 35.477zM35.998 30.663c-0.31 0-0.6 0.12-0.817 0.339-0.451 0.451-0.451 1.185 0 1.636 0.436 0.438 1.198 0.438 1.635 0 0.451-0.451 0.451-1.185 0-1.636C36.597 30.783 36.308 30.663 35.998 30.663z" data-fill-palette-color="accent"></path></g></g><g fill="#ff9966" data-fill-palette-color="accent"><path fill="#000000" d="M40.042 54.471c-0.319 0-0.639-0.121-0.883-0.365-0.488-0.487-0.488-1.279 0-1.769l5.936-5.936c0.487-0.488 1.279-0.488 1.768 0 0.488 0.488 0.488 1.279 0 1.768l-5.936 5.937C40.683 54.35 40.362 54.471 40.042 54.471z" data-fill-palette-color="accent"></path></g><g fill="#ff9966" data-fill-palette-color="accent"><g fill="#ff9966" data-fill-palette-color="accent"><path fill="#000000" d="M38.083 58.838c-0.977 0-1.896-0.381-2.586-1.072-0.691-0.688-1.071-1.607-1.071-2.584 0-0.978 0.38-1.896 1.071-2.586 0.691-0.691 1.609-1.072 2.586-1.072s1.895 0.381 2.584 1.07c0.691 0.691 1.072 1.61 1.072 2.588 0 0.977-0.381 1.896-1.072 2.584C39.978 58.457 39.06 58.838 38.083 58.838zM38.083 54.023c-0.31 0-0.6 0.121-0.818 0.34-0.219 0.218-0.339 0.508-0.339 0.816 0 0.31 0.12 0.6 0.339 0.817 0.438 0.438 1.199 0.438 1.635 0 0.219-0.22 0.34-0.509 0.34-0.817 0-0.31-0.121-0.6-0.34-0.818C38.683 54.145 38.392 54.023 38.083 54.023z" data-fill-palette-color="accent"></path></g></g></svg></g></svg></g><g></g></svg></g></svg></g></svg></g></svg></g></svg><rect width="320" height="360" fill="none" stroke="none" visibility="hidden"></rect></g></svg></g></svg>